<svg xmlns="http://www.w3.org/2000/svg" xmlns:xlink="http://www.w3.org/1999/xlink" viewBox="0 0 3534.52 4731.82"><defs><style>.cls-1{fill:url(#linear-gradient);}.cls-2{fill:url(#linear-gradient-2);}.cls-3{fill:#b7e622;}</style><linearGradient id="linear-gradient" x1="751.21" y1="2723.75" x2="2783.31" y2="2723.75" gradientUnits="userSpaceOnUse"><stop offset="0" stop-color="#b3b3b3"></stop><stop offset="1" stop-color="#fefefe"></stop></linearGradient><linearGradient id="linear-gradient-2" x1="751.21" y1="1693.29" x2="2783.31" y2="1693.29" xlink:href="#linear-gradient"></linearGradient></defs><g id="Layer_2" data-name="Layer 2"><g id="V"><polygon class="cls-1" points="751.21 2053.24 1290.08 1797.59 1292.52 2386.87 1767.26 2882.98 2266.25 2386.85 2266.25 1797.57 2783.31 2053.24 2783.31 2595.94 1775.57 3649.93 751.21 2586.97 751.21 2053.24"></polygon></g><g id="T"><polygon class="cls-2" points="751.21 1857.86 751.21 750.38 2783.31 750.38 2783.31 1857.86 2266.25 1644.07 2266.27 1295.7 2031.06 1295.7 2031.04 2386.87 1767.62 2636.2 1499.39 2385.72 1499.39 1295.7 1292.52 1295.77 1292.52 1632.73 751.21 1857.86"></polygon></g><g id="C"><polygon class="cls-3" points="0 0 3534.52 0 3534.52 1034.76 2990.18 1034.76 2990.18 544.35 544.35 544.35 544.35 2670.47 1775.7 3947.65 2990.18 2688.32 2990.18 2236.59 3534.52 2236.59 3534.52 2908.03 1775.7 4731.82 0 2890.53 0 0"></polygon></g></g></svg>